# xmcd
# Copyright (C) 1995-1998 Ti Kan
#
# Track frame offsets:
#       150
#       56355
#       121385
#       173017
#       268078
#       279136
#       298475
#       316724
#       342130
#
# Disc length: 4772 seconds
#
# Revision: 2
# Processed by: cddbd v1.5.2PL0 Copyright (c) Steve Scherf et al.
# Submitted via: CD-Import v1.0
#
DISCID=8012a209
DTITLE=Motorpsycho - Serpentine
DYEAR=02
DGENRE=
TTITLE0=The Alchemyst
TTITLE1=She Left On The Sunshpi
TTITLE2=Year Zero
TTITLE3=Suite Sweet Lucid Moments
TTITLE4=Composite Head
TTITLE5=What If...
TTITLE6=Neverland
TTITLE7=Überwagner Or A Million Bubbles In My Mind
TTITLE8=Serpentine
EXTD=
EXTT0=
EXTT1=
EXTT2=
EXTT3=
EXTT4=
EXTT5=
EXTT6=
EXTT7=
EXTT8=
PLAYORDER=
